<?xml version="1.0" encoding="UTF-8"?>
<svg width="2000px" height="2000px" viewBox="0 0 2000 2000" version="1.1" xmlns="http://www.w3.org/2000/svg" xmlns:xlink="http://www.w3.org/1999/xlink">
    <!-- Generator: Sketch 48.2 (47327) - http://www.bohemiancoding.com/sketch -->
    <title>Logo - C - White</title>
    <desc>Created with Sketch.</desc>
    <defs></defs>
    <g id="Page-1" stroke="none" stroke-width="1" fill="none" fill-rule="evenodd">
        <rect id="Rectangle-6-Copy" stroke="#979797" x="-3105.5" y="-1603.5" width="8212" height="5784"></rect>
        <rect id="Combined-Shape" fill="#FFFFFF" x="1" y="1" width="2000" height="2000" rx="226"></rect>
        <path d="M0,458.715596 L413.057466,458.715596 L394.495413,664.120776 L565.081814,458.715596 L614.738494,458.715596 C741.420656,458.715596 844.036697,356.002125 844.036697,229.298638 L844.036697,0 L1770.57457,0 C1897.28274,0 2000,102.622505 2000,229.42543 L2000,1770.57457 C2000,1897.28274 1897.3775,2000 1770.57457,2000 L229.42543,2000 C102.717264,2000 0,1897.3775 0,1770.57457 L0,458.715596 Z M1467.37956,664.302265 C1438.66921,614.400954 1401.41469,572.703224 1355.61485,539.207823 C1309.81502,505.712423 1257.86375,480.762142 1199.75948,464.356231 C1141.65522,447.950321 1081.15933,439.747489 1018.27001,439.747489 C932.138976,439.747489 855.579209,454.102445 788.588408,482.812788 C721.597608,511.523131 664.861352,551.511938 618.377939,602.780408 C571.894526,654.048878 536.690705,714.88655 512.765419,785.295249 C488.840133,855.703948 476.877669,931.92193 476.877669,1013.95148 C476.877669,1093.24672 489.865487,1166.04685 515.841511,1232.35407 C541.817536,1298.66129 578.046712,1355.73933 624.530125,1403.58991 C671.013537,1451.44048 727.408008,1488.69501 793.71523,1515.35461 C860.022451,1542.01422 932.822586,1555.34382 1012.11782,1555.34382 C1152.93522,1555.34382 1268.45844,1518.43107 1358.69094,1444.60448 C1448.92345,1370.77788 1503.609,1263.45749 1522.74923,1122.6401 L1241.79942,1122.6401 C1232.2293,1188.26374 1208.64616,1240.55679 1171.04928,1279.52083 C1133.4524,1318.48487 1079.79221,1337.96659 1010.06709,1337.96659 C964.950838,1337.96659 926.670955,1327.71305 895.226293,1307.20566 C863.781631,1286.69828 838.83135,1260.38086 820.374701,1228.25262 C801.918052,1196.12437 788.588449,1160.23698 780.385494,1120.58937 C772.182539,1080.94175 768.081123,1041.9783 768.081123,1003.69784 C768.081123,964.050223 772.182539,924.061416 780.385494,883.730219 C788.588449,843.399023 802.601621,806.486278 822.425429,772.990878 C842.249238,739.495477 867.883088,712.152703 899.32775,690.961736 C930.772412,669.770768 969.735864,659.175443 1016.21928,659.175443 C1140.63076,659.175443 1212.40555,720.013115 1231.54577,841.690284 L1516.59704,841.690284 C1512.49557,773.332324 1496.0899,714.203575 1467.37956,664.302265 Z" id="Combined-Shape-Copy-12" fill="#000000"></path>
    </g>
</svg>